<?xml version="1.0" encoding="UTF-8"?>

<svg xmlns="http://www.w3.org/2000/svg" viewBox="0 0 512 512" width="512" height="512" role="img" aria-label="Stipt.">
  <g transform="translate(61.440 61.727) scale(0.573078) translate(-38.000 666.000)">
    <path d="M274 12L274 12Q206 12 145.50-13Q85-38 38-84L38-84L101-160Q136-126 182.50-107.50Q229-89 276-89L276-89Q332-89 361-112Q390-135 390-173L390-173Q390-200 377-216.50Q364-233 341.50-245Q319-257 289-269L289-269L199-308Q167-322 136.50-344.50Q106-367 86.50-400.50Q67-434 67-482L67-482Q67-534 95.50-575.50Q124-617 173.50-641.50Q223-666 287-666L287-666Q346-666 398.50-644.50Q451-623 488-586L488-586L427-510Q395-536 360-550.50Q325-565 287-565L287-565Q241-565 212.50-544.50Q184-524 184-488L184-488Q184-463 198.50-446.50Q213-430 237.50-418.50Q262-407 288-396L288-396L377-359Q416-342 446-319Q476-296 492.50-263Q509-230 509-182L509-182Q509-129 481-85Q453-41 400.50-14.50Q348 12 274 12Z" fill="#0E0E0E"></path>
    <path d="M643 12L643 12Q612 12 590-10.50Q568-33 568-66L568-66Q568-100 590-122Q612-144 643-144L643-144Q675-144 696-122Q717-100 717-66L717-66Q717-33 696-10.50Q675 12 643 12Z" fill="#00a5d9"></path>
  </g>
</svg>