<?xml version="1.0" encoding="UTF-8"?>

<svg xmlns="http://www.w3.org/2000/svg" viewBox="0 0 2092.000 902.000" width="463.858" height="200" role="img" aria-label="Stipt.">
  <g transform="translate(-38.000 708.000)">
    <path d="M274 12L274 12Q206 12 145.50-13Q85-38 38-84L38-84L101-160Q136-126 182.50-107.50Q229-89 276-89L276-89Q332-89 361-112Q390-135 390-173L390-173Q390-200 377-216.50Q364-233 341.50-245Q319-257 289-269L289-269L199-308Q167-322 136.50-344.50Q106-367 86.50-400.50Q67-434 67-482L67-482Q67-534 95.50-575.50Q124-617 173.50-641.50Q223-666 287-666L287-666Q346-666 398.50-644.50Q451-623 488-586L488-586L427-510Q395-536 360-550.50Q325-565 287-565L287-565Q241-565 212.50-544.50Q184-524 184-488L184-488Q184-463 198.50-446.50Q213-430 237.50-418.50Q262-407 288-396L288-396L377-359Q416-342 446-319Q476-296 492.50-263Q509-230 509-182L509-182Q509-129 481-85Q453-41 400.50-14.50Q348 12 274 12ZM756 10L756 10Q671 10 635.50-39.50Q600-89 600-168L600-168L600-400L530-400L530-486L606-491L620-645L716-645L716-491L841-491L841-400L716-400L716-168Q716-125 733-103.50Q750-82 785-82L785-82Q798-82 811-84Q824-86 836-92L836-92L857-11Q838-2 812 4Q786 10 756 10ZM1024 0L909 0L909-491L1024-491L1024 0ZM966-577L966-577Q936-577 916.50-595Q897-613 897-643L897-643Q897-673 916.50-690.50Q936-708 966-708L966-708Q997-708 1016-690.50Q1035-673 1035-643L1035-643Q1035-613 1016-595Q997-577 966-577ZM1251 194L1136 194L1136-491L1231-491L1239-439L1243-439Q1274-466 1312-484.50Q1350-503 1391-503L1391-503Q1452-503 1495-472Q1538-441 1561-385Q1584-329 1584-253L1584-253Q1584-169 1554-110Q1524-51 1476.50-19.50Q1429 12 1374 12L1374 12Q1342 12 1310-2Q1278-16 1248-42L1248-42L1251 40L1251 194ZM1350-83L1350-83Q1383-83 1409-102Q1435-121 1450-158.50Q1465-196 1465-252L1465-252Q1465-301 1454-336Q1443-371 1419.50-389.50Q1396-408 1359-408L1359-408Q1332-408 1306-394.50Q1280-381 1251-353L1251-353L1251-124Q1278-102 1303.50-92.50Q1329-83 1350-83ZM1838 10L1838 10Q1753 10 1717.50-39.50Q1682-89 1682-168L1682-168L1682-400L1612-400L1612-486L1688-491L1702-645L1798-645L1798-491L1923-491L1923-400L1798-400L1798-168Q1798-125 1815-103.50Q1832-82 1867-82L1867-82Q1880-82 1893-84Q1906-86 1918-92L1918-92L1939-11Q1920-2 1894 4Q1868 10 1838 10Z" fill="#FFFFFF"></path>
    <path d="M2056 12L2056 12Q2025 12 2003-10.50Q1981-33 1981-66L1981-66Q1981-100 2003-122Q2025-144 2056-144L2056-144Q2088-144 2109-122Q2130-100 2130-66L2130-66Q2130-33 2109-10.50Q2088 12 2056 12Z" fill="#00a5d9"></path>
  </g>
</svg>